<?xml version="1.0" standalone="no"?>
<!DOCTYPE svg PUBLIC "-//W3C//DTD SVG 20010904//EN"
 "http://www.w3.org/TR/2001/REC-SVG-20010904/DTD/svg10.dtd">
<svg version="1.0" xmlns="http://www.w3.org/2000/svg"
 width="500.000000pt" height="500.000000pt" viewBox="0 0 500.000000 500.000000"
 preserveAspectRatio="xMidYMid meet">
<metadata>
Created by potrace 1.14, written by Peter Selinger 2001-2017
</metadata>
<g transform="translate(0.000000,500.000000) scale(0.100000,-0.100000)"
fill="#000000" stroke="none">
<path d="M2950 4205 l0 -115 -795 0 -795 0 0 -110 0 -109 -113 -3 -112 -3 -3
-112 -3 -113 -111 0 -111 0 6 -342 7 -343 -120 3 -119 4 -1 -346 0 -346 120 0
120 0 0 -340 0 -340 105 3 104 2 3 -115 3 -115 343 -3 342 -2 0 -110 0 -110
-115 0 -115 0 0 -115 0 -115 -230 0 -230 0 0 -115 0 -115 -110 0 -110 0 0
-340 0 -340 1590 0 1590 0 0 340 0 340 -110 0 -110 0 0 115 0 115 -230 0 -230
0 0 115 0 115 -115 0 -115 0 0 110 0 110 343 2 342 3 3 113 3 112 67 0 c37 0
84 3 105 6 l37 7 0 333 0 334 120 0 120 0 0 346 -1 345 -117 -2 -117 -3 4 457
3 457 -111 0 -111 0 0 110 0 110 -115 0 -115 0 0 115 0 115 -115 0 -115 0 0
-115 0 -115 -115 0 -115 0 0 115 0 115 -115 0 -115 0 0 -115z m-1360 -1370 l0
-115 115 0 115 0 0 115 0 115 115 0 115 0 0 -225 0 -225 -345 0 -345 0 0 225
0 225 115 0 115 0 0 -115z m1590 0 l0 -115 115 0 115 0 0 115 0 115 115 0 115
0 0 -225 0 -225 -345 0 -345 0 0 225 0 225 115 0 115 0 0 -115z m-900 -900 l0
-115 340 0 340 0 0 -115 0 -115 -345 0 -345 0 0 115 0 115 -115 0 -115 0 0
115 0 115 120 0 120 0 0 -115z"/>
</g>
</svg>
