<?xml version="1.0" standalone="no"?>
<!DOCTYPE svg PUBLIC "-//W3C//DTD SVG 20010904//EN"
 "http://www.w3.org/TR/2001/REC-SVG-20010904/DTD/svg10.dtd">
<svg version="1.0" xmlns="http://www.w3.org/2000/svg"
 width="96.000000pt" height="96.000000pt" viewBox="0 0 96.000000 96.000000"
 preserveAspectRatio="xMidYMid meet">
<metadata>
Created by potrace 1.14, written by Peter Selinger 2001-2017
</metadata>
<g transform="translate(0.000000,96.000000) scale(0.100000,-0.100000)"
fill="#000000" stroke="none">
<path d="M305 920 c-3 -5 6 -22 20 -36 24 -24 26 -29 14 -52 -8 -13 -39 -41
-69 -61 -31 -20 -62 -51 -71 -69 -24 -48 -67 -84 -90 -77 -30 10 -58 45 -70
87 -9 35 -40 55 -38 26 3 -47 42 -107 86 -133 27 -16 31 -23 27 -44 -13 -57
-15 -61 -42 -61 -41 0 -73 -11 -69 -24 2 -7 23 -10 55 -8 49 4 52 3 49 -19 -2
-12 -1 -39 3 -59 6 -33 3 -40 -26 -68 -22 -21 -40 -55 -58 -109 -30 -91 -31
-93 -11 -93 9 0 22 24 34 65 24 76 38 106 60 121 13 10 19 3 37 -42 44 -109
130 -195 226 -227 153 -50 322 36 401 204 18 38 37 69 43 69 14 0 46 -61 69
-133 11 -31 25 -57 32 -57 18 0 17 4 -16 99 -20 58 -38 90 -59 107 -25 21 -29
30 -25 57 3 18 6 45 6 60 1 27 2 28 50 25 31 -2 52 1 54 8 4 13 -28 24 -70 24
-29 0 -32 4 -41 58 -4 25 -2 34 12 39 43 16 71 46 87 94 12 36 14 54 6 62 -7
7 -13 2 -20 -19 -18 -50 -35 -76 -63 -97 -25 -19 -27 -19 -52 -1 -15 11 -36
36 -47 57 -11 21 -38 50 -61 65 -23 15 -56 42 -74 61 l-33 33 32 29 c24 22 28
32 20 40 -9 9 -19 5 -42 -17 -29 -28 -34 -29 -115 -29 -78 1 -88 3 -115 28
-34 30 -37 31 -46 17z"/>
</g>
</svg>
